<svg xmlns="http://www.w3.org/2000/svg" width="1080" height="1080" viewBox="0 0 1080 1080" fill="none"><g clip-path="url(#clip0_4_12)"><path d="M197.902 540L246.029 764.856H181.865L154.911 552.851H140.164V764.856H76V315.144H140.145V523.296H155.537L181.865 315.144H246.029L197.902 540Z" fill="white"></path><path d="M258.843 537.437C258.843 480.264 266.539 424.364 280.016 381.314L294.138 385.812C280.661 427.572 272.965 481.537 272.965 537.437C272.965 598.482 281.949 655.654 297.341 698.059C312.089 737.883 331.347 755.232 350.587 755.232C369.827 755.232 389.729 737.883 403.833 698.059C419.869 655.654 428.209 598.482 428.209 537.437C428.209 476.393 421.784 424.364 407.681 381.959C396.781 386.458 385.219 389.666 373.675 390.956C360.198 392.247 348.654 391.601 339.025 387.748C326.192 383.25 316.563 372.962 313.359 361.402C308.867 347.906 314.004 331.848 324.903 322.205C335.177 313.208 349.924 309.355 364.046 311.917C376.878 314.48 388.422 321.56 398.051 331.829C404.459 338.89 409.595 347.242 413.443 357.53L415.358 362.029C425.632 356.885 434.616 349.824 442.312 341.472L452.586 351.759C443.601 361.402 432.702 369.754 420.513 376.17C435.905 420.492 442.975 471.249 442.975 537.419C442.975 672.985 403.207 769.981 350.587 769.981C297.967 769.981 258.843 672.967 258.843 537.419V537.437ZM355.079 325.413C347.383 325.413 340.332 327.976 334.551 333.12C327.499 338.909 324.277 349.178 326.855 357.53C329.432 364.591 335.839 371.026 344.18 374.234C351.876 376.797 360.86 378.087 371.76 376.797C382.034 375.506 392.933 372.298 402.562 368.445C401.918 366.509 401.273 364.591 399.985 363.301C396.781 354.304 392.289 347.242 387.152 341.453C380.1 333.747 371.116 327.957 361.486 326.04C359.553 326.04 357.638 325.395 355.061 325.395L355.079 325.413Z" fill="white"></path><path d="M604.645 764.856H496.221L465.437 315.144H529.582L543.059 703.83H557.807L571.284 315.144H635.447L604.645 764.856Z" fill="white"></path><path d="M795.829 376.17H712.425V507.883H769.519V568.909H712.425V703.83H795.829V764.856H648.262V315.144H795.829V376.17Z" fill="white"></path><path d="M882.454 761.003L868.333 764.856C864.485 749.443 772.741 388.375 824.072 322.205C829.853 313.853 838.193 310 847.804 310C887.573 310 925.426 385.812 962.01 540.645C974.198 590.111 983.827 639.578 990.879 679.42V315.144H1005V762.939L990.879 764.229C966.502 592.047 906.186 324.141 847.804 324.141C842.667 324.141 838.819 326.704 835.616 331.202C795.829 381.314 856.144 657.572 882.454 761.003Z" fill="white"></path></g><defs><clipPath id="clip0_4_12"><rect width="929" height="460" fill="white" transform="translate(76 310)"></rect></clipPath></defs></svg>