<svg width="231" height="27" viewBox="0 0 231 27" fill="none" xmlns="http://www.w3.org/2000/svg">
  <path d="M0 0.449219H10.4278C12.4884 0.449219 14.037 0.536638 15.0486 0.711476C16.0601 0.886314 16.9718 1.23599 17.771 1.78548C18.5703 2.33497 19.2447 3.0593 19.7692 3.97096C20.3062 4.88261 20.5685 5.89418 20.5685 7.01814C20.5685 8.242 20.2438 9.36596 19.5819 10.3775C18.92 11.4016 18.0333 12.1634 16.8969 12.6754C18.4829 13.1375 19.7068 13.9242 20.5685 15.0482C21.4177 16.1597 21.8548 17.471 21.8548 18.9821C21.8548 20.1685 21.58 21.3174 21.0305 22.4414C20.481 23.5653 19.7192 24.452 18.7701 25.1264C17.821 25.8007 16.6346 26.2129 15.2359 26.3627C14.3617 26.4626 12.2387 26.5126 8.87928 26.5376H0V0.449219ZM5.27012 4.78271V10.8146H8.71693C10.765 10.8146 12.0389 10.7896 12.5384 10.7272C13.4376 10.6148 14.1494 10.3026 14.6614 9.79057C15.1734 9.27854 15.4357 8.59168 15.4357 7.75495C15.4357 6.91823 15.2109 6.29381 14.7738 5.78178C14.3242 5.28224 13.6623 4.97003 12.7882 4.87013C12.2636 4.80768 10.765 4.78271 8.29232 4.78271H5.27012ZM5.27012 15.1606V22.1416H10.1406C12.0389 22.1416 13.2377 22.0917 13.7498 21.9793C14.5365 21.8419 15.1734 21.4922 15.6605 20.9427C16.1475 20.3933 16.3973 19.6564 16.3973 18.7198C16.3973 17.933 16.21 17.2711 15.8228 16.7217C15.4357 16.1722 14.8987 15.7725 14.1744 15.5228C13.4625 15.273 11.9015 15.1481 9.5037 15.1481H5.24514L5.27012 15.1606Z" fill="#f0eaf0"/>
  <path d="M25.2391 13.6499C25.2391 10.9898 25.6387 8.76688 26.438 6.95606C27.0249 5.63228 27.8367 4.43339 28.8607 3.37188C29.8848 2.32285 31.0087 1.53608 32.2326 1.02405C33.8561 0.349676 35.7294 0 37.8524 0C41.6988 0 44.771 1.1864 47.0814 3.57169C49.3917 5.95698 50.5406 9.26642 50.5406 13.525C50.5406 17.7835 49.3917 21.0305 47.1063 23.4158C44.8209 25.8011 41.7488 26.9875 37.9273 26.9875C34.1059 26.9875 30.9588 25.8011 28.6734 23.4408C26.388 21.068 25.2391 17.8085 25.2391 13.6623M30.6591 13.475C30.6591 16.4348 31.3459 18.6702 32.7072 20.1938C34.0684 21.7174 35.8043 22.4792 37.9024 22.4792C40.0004 22.4792 41.7238 21.7174 43.0726 20.2063C44.4213 18.6952 45.0957 16.4223 45.0957 13.4001C45.0957 10.3779 44.4463 8.17992 43.135 6.70629C41.8237 5.23265 40.0878 4.49584 37.9148 4.49584C35.7419 4.49584 33.9935 5.24514 32.6697 6.73127C31.3459 8.21739 30.6715 10.4653 30.6715 13.4625" fill="#f0eaf0"/>
  <path d="M54.6369 0.449219H64.2655C66.4385 0.449219 68.0869 0.611568 69.2359 0.948756C70.772 1.39834 72.0832 2.1976 73.1697 3.34654C74.2562 4.49547 75.093 5.90667 75.6674 7.56763C76.2419 9.24108 76.5166 11.2892 76.5166 13.7369C76.5166 15.8849 76.2544 17.7332 75.7174 19.2943C75.068 21.1925 74.1313 22.7286 72.92 23.9025C72.0083 24.7892 70.772 25.4885 69.2234 25.9881C68.062 26.3502 66.5009 26.5376 64.5652 26.5376H54.6494V0.449219H54.6369ZM59.907 4.85764V22.1416H63.8409C65.3145 22.1416 66.376 22.0542 67.0254 21.8919C67.8746 21.6796 68.5865 21.3174 69.1485 20.8054C69.7104 20.2933 70.1725 19.4566 70.5222 18.2827C70.8844 17.1088 71.0592 15.5228 71.0592 13.4996C71.0592 11.4765 70.8844 9.94043 70.5222 8.85394C70.16 7.77993 69.673 6.93072 69.0236 6.33127C68.3867 5.73183 67.5749 5.31971 66.5883 5.10741C65.8515 4.94506 64.4153 4.85764 62.2673 4.85764H59.907Z" fill="#f0eaf0"/>
  <path d="M87.8311 26.5376V15.5602L78.2774 0.449219H84.4467L90.591 10.7647L96.6105 0.449219H102.68L93.0762 15.5852V26.5376H87.8311Z" fill="#f0eaf0"/>
  <path d="M105.315 26.5376V0.449219H110.573V10.7147H120.901V0.449219H126.171V26.5376H120.901V15.1231H110.573V26.5376H105.315Z" fill="#f0eaf0"/>
  <path d="M130.542 13.6499C130.542 10.9898 130.941 8.76688 131.728 6.95606C132.328 5.63228 133.127 4.43339 134.163 3.37188C135.187 2.32285 136.311 1.53608 137.535 1.02405C139.171 0.349676 141.044 0 143.167 0C147.014 0 150.086 1.1864 152.396 3.57169C154.707 5.95698 155.856 9.26642 155.856 13.525C155.856 17.7835 154.707 21.0305 152.421 23.4158C150.136 25.8011 147.064 26.9875 143.242 26.9875C139.421 26.9875 136.274 25.8011 133.988 23.4408C131.703 21.068 130.554 17.8085 130.554 13.6623M135.974 13.475C135.974 16.4348 136.661 18.6702 138.022 20.1938C139.383 21.7174 141.119 22.4792 143.217 22.4792C145.315 22.4792 147.039 21.7174 148.388 20.2063C149.736 18.6952 150.411 16.4223 150.411 13.4001C150.411 10.3779 149.749 8.17992 148.438 6.70629C147.126 5.23265 145.39 4.49584 143.217 4.49584C141.044 4.49584 139.296 5.24514 137.972 6.73127C136.649 8.21739 135.974 10.4653 135.974 13.4625" fill="#f0eaf0"/>
  <path d="M160 0H165.27V14.1369C165.27 16.3723 165.333 17.8335 165.47 18.4954C165.695 19.5569 166.232 20.4186 167.081 21.068C167.93 21.7174 169.092 22.0421 170.565 22.0421C172.039 22.0421 173.188 21.7424 173.95 21.1304C174.711 20.5185 175.161 19.7692 175.323 18.8825C175.473 17.9958 175.548 16.5097 175.548 14.4491V0H180.818V13.6998C180.818 16.8344 180.681 19.0449 180.394 20.3312C180.106 21.63 179.582 22.7165 178.82 23.6031C178.058 24.4898 177.034 25.2017 175.748 25.7262C174.462 26.2507 172.788 26.5129 170.728 26.5129C168.242 26.5129 166.344 26.2257 165.058 25.6512C163.772 25.0768 162.747 24.3275 162.011 23.4033C161.261 22.4792 160.774 21.5176 160.537 20.506C160.2 19.0074 160.025 16.8094 160.025 13.8871V0H160Z" fill="#f0eaf0"/>
  <path d="M184.954 18.0458L190.074 17.5463C190.386 19.2697 191.011 20.531 191.947 21.3427C192.896 22.1545 194.158 22.5541 195.769 22.5541C197.467 22.5541 198.741 22.192 199.603 21.4801C200.464 20.7683 200.889 19.9191 200.889 18.9574C200.889 18.3455 200.702 17.821 200.352 17.3839C199.99 16.9468 199.353 16.5722 198.454 16.2599C197.842 16.0476 196.431 15.673 194.233 15.1235C191.41 14.4241 189.425 13.5624 188.288 12.5384C186.69 11.1022 185.89 9.35384 185.89 7.29325C185.89 5.96947 186.265 4.72063 187.014 3.5592C187.764 2.39778 188.85 1.52359 190.274 0.911656C191.698 0.312211 193.409 0 195.407 0C198.679 0 201.151 0.724329 202.8 2.14801C204.461 3.58418 205.322 5.5074 205.41 7.89269L200.14 8.12997C199.915 6.79371 199.428 5.81961 198.691 5.23266C197.954 4.6457 196.843 4.35846 195.357 4.35846C193.871 4.35846 192.634 4.67068 191.76 5.30759C191.198 5.70722 190.923 6.25671 190.923 6.93108C190.923 7.54302 191.186 8.08002 191.71 8.51711C192.372 9.07909 193.983 9.65356 196.556 10.2655C199.116 10.8649 201.014 11.5019 202.238 12.1388C203.462 12.7882 204.423 13.6748 205.123 14.7863C205.822 15.8978 206.159 17.2965 206.159 18.945C206.159 20.4436 205.747 21.8423 204.91 23.1411C204.086 24.4399 202.9 25.414 201.389 26.0509C199.865 26.6878 197.979 27 195.706 27C192.409 27 189.874 26.2382 188.101 24.7146C186.328 23.191 185.279 20.9681 184.929 18.0458" fill="#f0eaf0"/>
  <path d="M210.605 26.5376V0.449219H229.95V4.85764H215.875V10.6398H228.976V15.0357H215.875V22.1416H230.449V26.5376H210.605Z" fill="#f0eaf0"/>
</svg>
