<svg xmlns="http://www.w3.org/2000/svg" viewBox="0 0 400 120" width="400" height="120">
  <defs>
    <linearGradient id="g10" x1="0%" y1="0%" x2="100%" y2="0%">
      <stop offset="0%" style="stop-color:#06b6d4"/>
      <stop offset="50%" style="stop-color:#8b5cf6"/>
      <stop offset="100%" style="stop-color:#ec4899"/>
    </linearGradient>
    <linearGradient id="g10b" x1="0%" y1="0%" x2="100%" y2="0%">
      <stop offset="0%" style="stop-color:#06b6d4;stop-opacity:0.15"/>
      <stop offset="100%" style="stop-color:#ec4899;stop-opacity:0.05"/>
    </linearGradient>
  </defs>
  <rect width="400" height="120" fill="white"/>
  <!-- Wave en arrière-plan -->
  <path d="M0 85 Q50 65 100 80 Q150 95 200 78 Q250 60 300 75 Q350 90 400 70 L400 120 L0 120 Z" fill="url(#g10b)"/>
  <path d="M0 90 Q50 72 100 85 Q150 98 200 83 Q250 68 300 80 Q350 92 400 76" fill="none" stroke="url(#g10)" stroke-width="2" opacity="0.5"/>
  <!-- Icône: K avec wave intégrée -->
  <rect x="12" y="15" width="80" height="70" rx="14" fill="white" stroke="url(#g10)" stroke-width="2"/>
  <path d="M32 30 L32 70 M32 50 L58 30 M32 50 L58 70" stroke="url(#g10)" stroke-width="3.5" stroke-linecap="round" stroke-linejoin="round" fill="none"/>
  <!-- Texte -->
  <text x="108" y="58" font-family="'Segoe UI', system-ui, sans-serif" font-size="40" font-weight="700" fill="#1e293b">Kō</text>
  <text x="173" y="58" font-family="'Segoe UI', system-ui, sans-serif" font-size="40" font-weight="700" fill="url(#g10)">dify</text>
  <!-- Tagline -->
  <text x="110" y="78" font-family="'Segoe UI', system-ui, sans-serif" font-size="11" fill="#94a3b8" letter-spacing="2">DESIGN . DEVELOP . DEPLOY</text>
</svg>
