<?xml version="1.0" encoding="UTF-8"?>
<svg xmlns="http://www.w3.org/2000/svg" viewBox="0 0 800 600" width="800" height="600">

  <!-- Territoire de Belfort (90) - Contour extérieur -->
  <path d="M 365.4,79.7 C 373.6,69.4 375.0,66.8 377.6,68.6 C 380.2,70.3 378.5,83.7 381.0,90.1 C 383.5,96.6 383.0,102.7 392.6,107.4 C 402.2,112.0 427.6,113.3 438.6,118.3 C 449.6,123.2 450.7,132.5 458.6,136.9 C 466.5,141.3 479.2,140.0 486.0,144.6 C 492.8,149.2 498.3,158.1 499.4,164.6 C 500.5,171.2 491.5,178.0 492.6,183.8 C 493.7,189.6 505.3,193.3 506.1,199.5 C 506.9,205.7 498.3,215.7 497.4,220.9 C 496.5,226.1 502.3,228.9 500.5,230.7 C 498.8,232.4 489.3,227.7 487.0,231.3 C 484.7,235.0 487.8,249.1 486.6,252.4 C 485.4,255.6 480.8,246.9 479.7,250.8 C 478.5,254.6 478.3,269.2 479.7,275.5 C 481.1,281.7 484.7,288.1 488.2,288.3 C 491.8,288.5 493.9,277.2 500.9,276.6 C 507.9,276.0 522.9,278.9 530.0,284.6 C 537.1,290.2 541.3,303.8 543.4,310.4 C 545.6,316.9 540.2,319.6 543.0,323.6 C 545.7,327.6 555.9,330.3 559.7,334.4 C 563.5,338.4 565.8,342.4 565.9,347.7 C 566.0,352.9 567.2,360.2 560.2,365.9 C 553.1,371.5 535.4,381.4 523.5,381.5 C 511.7,381.6 498.8,367.4 489.1,366.5 C 479.5,365.5 467.5,368.1 465.5,375.9 C 463.5,383.8 481.6,403.9 477.2,413.3 C 472.7,422.8 446.1,433.0 438.7,432.5 C 431.3,431.9 436.1,416.1 432.7,410.0 C 429.4,403.9 420.2,398.9 418.6,395.8 C 417.0,392.7 423.4,394.7 423.4,391.4 C 423.3,388.2 416.8,379.8 418.3,376.2 C 419.8,372.7 428.6,368.8 432.2,370.2 C 435.8,371.6 438.5,386.6 440.0,384.6 C 441.6,382.6 445.2,364.5 441.5,358.2 C 437.8,351.8 421.1,349.3 418.0,346.5 C 415.0,343.8 423.7,345.0 423.5,341.6 C 423.3,338.2 420.1,329.7 416.9,326.0 C 413.6,322.3 413.5,319.7 404.0,319.5 C 394.6,319.4 368.4,326.5 360.3,325.2 C 352.1,324.0 354.4,316.0 355.0,312.2 C 355.7,308.4 364.8,305.7 364.2,302.4 C 363.7,299.2 356.5,299.2 351.9,292.7 C 347.3,286.1 336.9,272.2 336.6,263.1 C 336.3,254.0 350.1,244.3 350.3,238.0 C 350.5,231.6 340.1,233.0 338.0,224.9 C 335.9,216.7 340.2,199.7 337.7,189.1 C 335.3,178.4 324.8,170.8 323.2,161.0 C 321.6,151.2 321.3,143.9 328.3,130.4 C 335.3,116.8 357.2,90.0 365.4,79.7 Z"
    fill="none" stroke="#6B7B3D" stroke-width="3.5"
    stroke-linecap="round" stroke-linejoin="round"/>

  <!-- Territoire de Belfort (90) - Contour intérieur -->
  <g transform="translate(442.6,274.3) scale(0.96) translate(-442.6,-274.3)">
    <path d="M 365.4,79.7 C 373.6,69.4 375.0,66.8 377.6,68.6 C 380.2,70.3 378.5,83.7 381.0,90.1 C 383.5,96.6 383.0,102.7 392.6,107.4 C 402.2,112.0 427.6,113.3 438.6,118.3 C 449.6,123.2 450.7,132.5 458.6,136.9 C 466.5,141.3 479.2,140.0 486.0,144.6 C 492.8,149.2 498.3,158.1 499.4,164.6 C 500.5,171.2 491.5,178.0 492.6,183.8 C 493.7,189.6 505.3,193.3 506.1,199.5 C 506.9,205.7 498.3,215.7 497.4,220.9 C 496.5,226.1 502.3,228.9 500.5,230.7 C 498.8,232.4 489.3,227.7 487.0,231.3 C 484.7,235.0 487.8,249.1 486.6,252.4 C 485.4,255.6 480.8,246.9 479.7,250.8 C 478.5,254.6 478.3,269.2 479.7,275.5 C 481.1,281.7 484.7,288.1 488.2,288.3 C 491.8,288.5 493.9,277.2 500.9,276.6 C 507.9,276.0 522.9,278.9 530.0,284.6 C 537.1,290.2 541.3,303.8 543.4,310.4 C 545.6,316.9 540.2,319.6 543.0,323.6 C 545.7,327.6 555.9,330.3 559.7,334.4 C 563.5,338.4 565.8,342.4 565.9,347.7 C 566.0,352.9 567.2,360.2 560.2,365.9 C 553.1,371.5 535.4,381.4 523.5,381.5 C 511.7,381.6 498.8,367.4 489.1,366.5 C 479.5,365.5 467.5,368.1 465.5,375.9 C 463.5,383.8 481.6,403.9 477.2,413.3 C 472.7,422.8 446.1,433.0 438.7,432.5 C 431.3,431.9 436.1,416.1 432.7,410.0 C 429.4,403.9 420.2,398.9 418.6,395.8 C 417.0,392.7 423.4,394.7 423.4,391.4 C 423.3,388.2 416.8,379.8 418.3,376.2 C 419.8,372.7 428.6,368.8 432.2,370.2 C 435.8,371.6 438.5,386.6 440.0,384.6 C 441.6,382.6 445.2,364.5 441.5,358.2 C 437.8,351.8 421.1,349.3 418.0,346.5 C 415.0,343.8 423.7,345.0 423.5,341.6 C 423.3,338.2 420.1,329.7 416.9,326.0 C 413.6,322.3 413.5,319.7 404.0,319.5 C 394.6,319.4 368.4,326.5 360.3,325.2 C 352.1,324.0 354.4,316.0 355.0,312.2 C 355.7,308.4 364.8,305.7 364.2,302.4 C 363.7,299.2 356.5,299.2 351.9,292.7 C 347.3,286.1 336.9,272.2 336.6,263.1 C 336.3,254.0 350.1,244.3 350.3,238.0 C 350.5,231.6 340.1,233.0 338.0,224.9 C 335.9,216.7 340.2,199.7 337.7,189.1 C 335.3,178.4 324.8,170.8 323.2,161.0 C 321.6,151.2 321.3,143.9 328.3,130.4 C 335.3,116.8 357.2,90.0 365.4,79.7 Z"
      fill="none" stroke="#7A8C4A" stroke-width="2.5"
      stroke-linecap="round" stroke-linejoin="round"/>
  </g>

  <!-- Pays de Montbéliard Agglomération - Contour extérieur -->
  <path d="M 324.4,331.9 C 329.7,333.6 331.1,337.3 333.5,338.1 C 335.9,338.8 336.2,338.6 338.8,336.4 C 341.3,334.2 346.8,328.8 348.9,324.9 C 351.1,320.9 350.5,314.6 351.6,312.5 C 352.6,310.3 353.5,309.7 355.1,312.0 C 356.7,314.2 358.9,323.5 361.1,326.1 C 363.4,328.7 364.0,327.4 368.7,327.4 C 373.3,327.4 383.2,327.6 388.9,326.2 C 394.6,324.8 398.2,319.0 402.9,319.0 C 407.5,319.0 413.4,322.2 416.9,326.0 C 420.3,329.8 423.4,338.4 423.6,341.8 C 423.8,345.2 415.9,344.4 418.0,346.5 C 420.1,348.5 431.8,351.2 436.2,353.9 C 440.6,356.6 443.6,359.5 444.4,362.5 C 445.3,365.5 441.3,368.4 441.2,371.9 C 441.2,375.5 445.1,381.8 444.1,383.8 C 443.1,385.8 437.4,386.2 435.4,383.9 C 433.4,381.6 435.1,371.6 432.2,370.2 C 429.3,368.7 419.5,371.9 418.0,375.3 C 416.5,378.8 423.3,387.6 423.3,391.0 C 423.3,394.4 417.2,394.0 418.0,395.7 C 418.8,397.4 426.5,399.6 428.0,401.2 C 429.6,402.8 426.1,403.7 427.1,405.4 C 428.0,407.1 432.5,408.2 433.7,411.6 C 434.8,415.0 433.2,422.2 434.0,425.7 C 434.8,429.2 437.7,428.0 438.6,432.5 C 439.4,437.0 439.1,448.5 438.9,452.7 C 438.7,456.9 440.3,456.7 437.4,457.8 C 434.5,458.9 423.8,458.8 421.6,459.2 C 419.4,459.6 424.2,459.3 424.4,460.5 C 424.7,461.6 423.9,465.0 423.0,466.1 C 422.1,467.2 419.3,465.7 419.1,467.1 C 418.9,468.5 424.4,470.9 421.8,474.5 C 419.1,478.1 406.6,482.8 403.0,488.7 C 399.4,494.5 403.3,507.6 400.2,509.5 C 397.0,511.4 395.7,502.2 384.0,500.0 C 372.3,497.9 338.4,496.6 329.9,496.8 C 321.5,497.0 333.3,500.3 333.2,501.1 C 333.1,501.9 330.3,500.5 329.4,501.8 C 328.6,503.0 327.0,507.8 328.2,508.7 C 329.3,509.7 335.8,506.9 336.2,507.6 C 336.6,508.3 330.5,511.2 330.3,512.9 C 330.1,514.6 335.6,516.0 335.2,517.9 C 334.8,519.7 327.6,521.7 327.9,523.9 C 328.2,526.1 337.5,530.7 336.9,531.0 C 336.4,531.3 328.6,526.0 324.6,525.6 C 320.7,525.2 314.8,528.9 313.4,528.8 C 311.9,528.7 315.9,526.7 316.1,525.0 C 316.3,523.3 316.0,518.6 314.7,518.4 C 313.4,518.3 310.3,523.5 308.4,523.9 C 306.4,524.2 305.1,520.0 303.0,520.7 C 300.9,521.4 298.7,526.8 295.7,528.2 C 292.7,529.6 288.7,529.5 285.0,529.2 C 281.2,528.8 273.2,528.3 273.2,526.0 C 273.1,523.8 283.1,519.3 284.6,515.5 C 286.1,511.7 284.9,504.6 282.3,503.4 C 279.6,502.1 274.5,508.6 268.8,508.3 C 263.2,507.9 251.3,503.7 248.4,501.4 C 245.5,499.2 251.7,496.0 251.3,494.7 C 250.9,493.3 246.5,494.2 245.9,493.3 C 245.3,492.3 246.2,490.1 247.7,489.0 C 249.3,487.9 252.3,489.2 255.2,486.5 C 258.1,483.7 265.3,476.0 265.2,472.4 C 265.2,468.9 255.8,467.9 254.8,465.2 C 253.8,462.5 258.0,457.5 259.3,456.1 C 260.6,454.6 262.3,458.2 262.3,456.4 C 262.3,454.6 261.0,447.8 259.5,445.3 C 258.0,442.8 255.4,440.9 253.1,441.6 C 250.8,442.3 248.3,449.4 245.9,449.4 C 243.5,449.4 239.0,444.5 238.6,441.6 C 238.3,438.8 244.2,435.5 244.1,432.4 C 244.0,429.2 239.3,426.0 238.1,422.7 C 236.9,419.4 236.7,415.6 237.1,412.4 C 237.4,409.2 240.7,406.1 240.2,403.3 C 239.8,400.5 234.7,398.9 234.1,395.8 C 233.5,392.6 235.1,387.2 236.6,384.5 C 238.1,381.8 241.4,382.7 243.3,379.4 C 245.1,376.2 244.3,367.2 247.9,364.9 C 251.4,362.6 261.1,364.6 264.7,365.6 C 268.4,366.5 268.5,370.4 269.9,370.7 C 271.3,371.0 272.9,368.5 273.3,367.3 C 273.8,366.2 271.7,365.6 272.5,363.7 C 273.3,361.7 277.4,358.6 278.1,355.7 C 278.8,352.9 276.2,349.4 276.7,346.8 C 277.2,344.1 281.7,342.3 281.2,339.6 C 280.7,336.9 275.3,333.3 273.9,330.6 C 272.5,328.0 269.8,323.7 272.9,323.7 C 276.0,323.6 287.9,329.5 292.7,330.2 C 297.5,330.9 296.5,327.6 301.8,327.9 C 307.1,328.2 319.1,330.2 324.4,331.9 Z"
    fill="none" stroke="#6B7B3D" stroke-width="3.5"
    stroke-linecap="round" stroke-linejoin="round"/>

  <!-- Pays de Montbéliard Agglomération - Contour intérieur -->
  <g transform="translate(332.0,427.0) scale(0.96) translate(-332.0,-427.0)">
    <path d="M 324.4,331.9 C 329.7,333.6 331.1,337.3 333.5,338.1 C 335.9,338.8 336.2,338.6 338.8,336.4 C 341.3,334.2 346.8,328.8 348.9,324.9 C 351.1,320.9 350.5,314.6 351.6,312.5 C 352.6,310.3 353.5,309.7 355.1,312.0 C 356.7,314.2 358.9,323.5 361.1,326.1 C 363.4,328.7 364.0,327.4 368.7,327.4 C 373.3,327.4 383.2,327.6 388.9,326.2 C 394.6,324.8 398.2,319.0 402.9,319.0 C 407.5,319.0 413.4,322.2 416.9,326.0 C 420.3,329.8 423.4,338.4 423.6,341.8 C 423.8,345.2 415.9,344.4 418.0,346.5 C 420.1,348.5 431.8,351.2 436.2,353.9 C 440.6,356.6 443.6,359.5 444.4,362.5 C 445.3,365.5 441.3,368.4 441.2,371.9 C 441.2,375.5 445.1,381.8 444.1,383.8 C 443.1,385.8 437.4,386.2 435.4,383.9 C 433.4,381.6 435.1,371.6 432.2,370.2 C 429.3,368.7 419.5,371.9 418.0,375.3 C 416.5,378.8 423.3,387.6 423.3,391.0 C 423.3,394.4 417.2,394.0 418.0,395.7 C 418.8,397.4 426.5,399.6 428.0,401.2 C 429.6,402.8 426.1,403.7 427.1,405.4 C 428.0,407.1 432.5,408.2 433.7,411.6 C 434.8,415.0 433.2,422.2 434.0,425.7 C 434.8,429.2 437.7,428.0 438.6,432.5 C 439.4,437.0 439.1,448.5 438.9,452.7 C 438.7,456.9 440.3,456.7 437.4,457.8 C 434.5,458.9 423.8,458.8 421.6,459.2 C 419.4,459.6 424.2,459.3 424.4,460.5 C 424.7,461.6 423.9,465.0 423.0,466.1 C 422.1,467.2 419.3,465.7 419.1,467.1 C 418.9,468.5 424.4,470.9 421.8,474.5 C 419.1,478.1 406.6,482.8 403.0,488.7 C 399.4,494.5 403.3,507.6 400.2,509.5 C 397.0,511.4 395.7,502.2 384.0,500.0 C 372.3,497.9 338.4,496.6 329.9,496.8 C 321.5,497.0 333.3,500.3 333.2,501.1 C 333.1,501.9 330.3,500.5 329.4,501.8 C 328.6,503.0 327.0,507.8 328.2,508.7 C 329.3,509.7 335.8,506.9 336.2,507.6 C 336.6,508.3 330.5,511.2 330.3,512.9 C 330.1,514.6 335.6,516.0 335.2,517.9 C 334.8,519.7 327.6,521.7 327.9,523.9 C 328.2,526.1 337.5,530.7 336.9,531.0 C 336.4,531.3 328.6,526.0 324.6,525.6 C 320.7,525.2 314.8,528.9 313.4,528.8 C 311.9,528.7 315.9,526.7 316.1,525.0 C 316.3,523.3 316.0,518.6 314.7,518.4 C 313.4,518.3 310.3,523.5 308.4,523.9 C 306.4,524.2 305.1,520.0 303.0,520.7 C 300.9,521.4 298.7,526.8 295.7,528.2 C 292.7,529.6 288.7,529.5 285.0,529.2 C 281.2,528.8 273.2,528.3 273.2,526.0 C 273.1,523.8 283.1,519.3 284.6,515.5 C 286.1,511.7 284.9,504.6 282.3,503.4 C 279.6,502.1 274.5,508.6 268.8,508.3 C 263.2,507.9 251.3,503.7 248.4,501.4 C 245.5,499.2 251.7,496.0 251.3,494.7 C 250.9,493.3 246.5,494.2 245.9,493.3 C 245.3,492.3 246.2,490.1 247.7,489.0 C 249.3,487.9 252.3,489.2 255.2,486.5 C 258.1,483.7 265.3,476.0 265.2,472.4 C 265.2,468.9 255.8,467.9 254.8,465.2 C 253.8,462.5 258.0,457.5 259.3,456.1 C 260.6,454.6 262.3,458.2 262.3,456.4 C 262.3,454.6 261.0,447.8 259.5,445.3 C 258.0,442.8 255.4,440.9 253.1,441.6 C 250.8,442.3 248.3,449.4 245.9,449.4 C 243.5,449.4 239.0,444.5 238.6,441.6 C 238.3,438.8 244.2,435.5 244.1,432.4 C 244.0,429.2 239.3,426.0 238.1,422.7 C 236.9,419.4 236.7,415.6 237.1,412.4 C 237.4,409.2 240.7,406.1 240.2,403.3 C 239.8,400.5 234.7,398.9 234.1,395.8 C 233.5,392.6 235.1,387.2 236.6,384.5 C 238.1,381.8 241.4,382.7 243.3,379.4 C 245.1,376.2 244.3,367.2 247.9,364.9 C 251.4,362.6 261.1,364.6 264.7,365.6 C 268.4,366.5 268.5,370.4 269.9,370.7 C 271.3,371.0 272.9,368.5 273.3,367.3 C 273.8,366.2 271.7,365.6 272.5,363.7 C 273.3,361.7 277.4,358.6 278.1,355.7 C 278.8,352.9 276.2,349.4 276.7,346.8 C 277.2,344.1 281.7,342.3 281.2,339.6 C 280.7,336.9 275.3,333.3 273.9,330.6 C 272.5,328.0 269.8,323.7 272.9,323.7 C 276.0,323.6 287.9,329.5 292.7,330.2 C 297.5,330.9 296.5,327.6 301.8,327.9 C 307.1,328.2 319.1,330.2 324.4,331.9 Z"
      fill="none" stroke="#7A8C4A" stroke-width="2.5"
      stroke-linecap="round" stroke-linejoin="round"/>
  </g>

  <!-- Pins de localisation -->
  <!-- Belfort -->
  <g transform="translate(390.0, 240.8)">
    <path d="M 0,0 C -4,-8 -12,-15 -12,-24 C -12,-31 -7,-35 0,-35 C 7,-35 12,-31 12,-24 C 12,-15 4,-8 0,0 Z" fill="#C0392B"/>
    <circle cx="0" cy="-24" r="4.5" fill="white"/>
  </g>
  <!-- Hericourt -->
  <g transform="translate(326.4, 298.9)">
    <path d="M 0,0 C -4,-8 -12,-15 -12,-24 C -12,-31 -7,-35 0,-35 C 7,-35 12,-31 12,-24 C 12,-15 4,-8 0,0 Z" fill="#C0392B"/>
    <circle cx="0" cy="-24" r="4.5" fill="white"/>
  </g>
  <!-- Montbeliard -->
  <g transform="translate(349.4, 361.0)">
    <path d="M 0,0 C -4,-8 -12,-15 -12,-24 C -12,-31 -7,-35 0,-35 C 7,-35 12,-31 12,-24 C 12,-15 4,-8 0,0 Z" fill="#C0392B"/>
    <circle cx="0" cy="-24" r="4.5" fill="white"/>
  </g>
  <!-- Audincourt -->
  <g transform="translate(377.6, 387.7)">
    <path d="M 0,0 C -4,-8 -12,-15 -12,-24 C -12,-31 -7,-35 0,-35 C 7,-35 12,-31 12,-24 C 12,-15 4,-8 0,0 Z" fill="#C0392B"/>
    <circle cx="0" cy="-24" r="4.5" fill="white"/>
  </g>
  <!-- Valentigney -->
  <g transform="translate(371.9, 406.4)">
    <path d="M 0,0 C -4,-8 -12,-15 -12,-24 C -12,-31 -7,-35 0,-35 C 7,-35 12,-31 12,-24 C 12,-15 4,-8 0,0 Z" fill="#C0392B"/>
    <circle cx="0" cy="-24" r="4.5" fill="white"/>
  </g>
  <!-- Delle -->
  <g transform="translate(475.7, 362.3)">
    <path d="M 0,0 C -4,-8 -12,-15 -12,-24 C -12,-31 -7,-35 0,-35 C 7,-35 12,-31 12,-24 C 12,-15 4,-8 0,0 Z" fill="#C0392B"/>
    <circle cx="0" cy="-24" r="4.5" fill="white"/>
  </g>
  <!-- Beaucourt -->
  <g transform="translate(427.0, 381.9)">
    <path d="M 0,0 C -4,-8 -12,-15 -12,-24 C -12,-31 -7,-35 0,-35 C 7,-35 12,-31 12,-24 C 12,-15 4,-8 0,0 Z" fill="#C0392B"/>
    <circle cx="0" cy="-24" r="4.5" fill="white"/>
  </g>

</svg>